# xmcd
# Track frame offsets:
# 150
# 16650
# 31891
# 45759
# 56741
# 70479
# 80901
# 102944
# 117643
# 125243
# 144970
#
# Disc length: 2142 seconds
# Revision: 0
# Processed by: cddbd v1.5.1PL0 Copyright (c) Steve Scherf et al.
# Submitted via: VisiTrax 2.9.10.228 - For more info visit www.synapsa.com
#
DISCID=97085c0b
DTITLE=Hazlewoods - Leavin' You For A Cowboy
DYEAR=2000
DGENRE=
TTITLE0=Divorce Trailer Style
TTITLE1=Long Gone
TTITLE2=Love and Hate
TTITLE3=Loaded
TTITLE4=Trouble
TTITLE5=I Really, Really Love You
TTITLE6=Lambchops
TTITLE7=Comfort
TTITLE8=Big Hair
TTITLE9=Teardrops
TTITLE10=Adios Amigo
EXTD=
EXTT0=
EXTT1=
EXTT2=
EXTT3=
EXTT4=
EXTT5=
EXTT6=
EXTT7=
EXTT8=
EXTT9=
EXTT10=
PLAYORDER=
